<?xml version="1.0" encoding="UTF-8"?>
<svg width="32px" height="33px" viewBox="0 0 32 33" version="1.1" xmlns="http://www.w3.org/2000/svg" xmlns:xlink="http://www.w3.org/1999/xlink">
    <title>ic_zhishi_da</title>
    <defs>
        <linearGradient x1="50%" y1="0%" x2="50%" y2="100%" id="linearGradient-1">
            <stop stop-color="#578FFF" offset="0%"></stop>
            <stop stop-color="#0F55E8" offset="100%"></stop>
        </linearGradient>
        <path d="M13.8522059,0.200882866 C14.6827572,-0.200882866 15.1069264,6.55031585e-15 15.1247136,0.803531462 L15.1247136,0.803531462 L15.1247136,29.7706267 C15.1247136,30.6995442 14.7005444,30.9066685 13.8522059,30.3919995 C4.91841085,27.8975071 0.351586474,26.4571898 0.151732829,26.0710477 C0.0452585444,25.8653261 0.0398307902,23.2628785 0.0358889569,19.9354778 L0.0351884994,19.3411043 C0.0339792289,18.3390735 0.0323918802,17.2828374 0.0278933621,16.2149304 C0.0196757796,14.2641516 0.00499233843,12.2755186 0.000434282257,10.5190646 L0.00068626291,8.59109054 C0.0084548134,6.54438157 0.0456945379,5.09712538 0.151732829,4.88940132 C0.36011325,4.48119382 3.4737748,3.45972635 6.6910696,2.46497969 L7.38105513,2.25246191 C10.3690173,1.33534516 13.2737863,0.480684 13.8522059,0.200882866 Z M28.9999166,4.99479582 C29.9516093,4.63153449 30.0541949,5.34261739 30.0612787,6.63904195 L30.0614962,6.97505973 C30.0613462,7.03300079 30.0611394,7.09188733 30.0609304,7.15168397 L30.0609304,24.2110775 C30.0611394,24.2708562 30.0613462,24.3297215 30.0614962,24.3876393 L30.0612787,24.7235021 C30.0541949,26.0192855 29.9516093,26.7299323 28.9999166,26.3831828 L28.9999166,26.3831828 L26.4224157,25.4254939 L26.4224157,5.95248479 Z M2.88784923,19.4399378 C2.59044527,19.4000341 2.37234904,19.8389749 2.37234904,20.3976268 C2.37234904,20.9562787 2.6102722,21.455075 2.88784923,21.5149306 L2.88784923,21.5149306 L7.6264856,22.4327158 C8.00319728,22.4925714 8.32042817,22.0137269 8.32042817,21.3553157 C8.32042817,20.6969046 8.00319728,20.098349 7.6264856,20.0584453 L7.6264856,20.0584453 Z M6.53600443,14.1526966 L2.90767616,14.2724077 C2.6102722,14.2724077 2.39217597,14.7512522 2.39217597,15.3099041 C2.39217597,15.8885079 2.6102722,16.3474005 2.90767616,16.3474005 L2.90767616,16.3474005 L6.53600443,16.4671116 C6.89288918,16.4870635 7.19029313,15.9683153 7.19029313,15.3099041 C7.19029313,14.6514929 6.89288918,14.1327447 6.53600443,14.1526966 L6.53600443,14.1526966 Z M10.1512969,7.71984658 L10.065198,7.72819976 L2.88784923,9.12482951 C2.59044527,9.18468507 2.37234904,9.68348141 2.37234904,10.2421333 C2.37234904,10.8007852 2.6102722,11.239726 2.88784923,11.1998223 L2.88784923,11.1998223 L10.065198,10.282037 C10.4815636,10.2221815 10.8384483,9.60367399 10.8582753,8.86545541 C10.8582753,8.14718868 10.5013905,7.64839234 10.065198,7.72819976 Z M17.6390855,6.53108854 L17.6390855,24.866842 L22.7315086,26.4031347 C23.8814706,26.8221236 23.9043955,25.7048198 23.9043955,23.8692493 L23.9043955,7.52868122 C23.9043955,5.6931107 23.8616437,4.55585504 22.7315086,4.99479582 L17.6390855,6.53108854 Z" id="path-2"></path>
    </defs>
    <g id="私有云图标库➕UI规范➕特殊样式" stroke="none" stroke-width="1" fill="none" fill-rule="evenodd">
        <g id="菜单栏" transform="translate(-106.000000, -802.000000)">
            <g id="ic_zhishi_da" transform="translate(106.000000, 802.170267)">
                <rect id="矩形" x="0" y="0" width="32" height="32"></rect>
                <g id="batchcomputepiliangjisuan" transform="translate(1.000000, 0.829733)" fill-rule="nonzero">
                    <g id="形状">
                        <use fill="#2B85FB" xlink:href="#path-2"></use>
                        <use fill="url(#linearGradient-1)" xlink:href="#path-2"></use>
                    </g>
                </g>
            </g>
        </g>
    </g>
</svg>